# xmcd CD database file
#
# Track frame offsets:
#	150
#	13457
#	26280
#	41225
#	53885
#	69975
#	82935
#	93730
#	108482
#	122825
#	137085
#	150345
#	162567
#	175672
#	187957
#	201382
#
# Disc length: 2830 seconds
#
# Revision: 0
# Processed by: cddbd v1.5.2PL0 Copyright (c) Steve Scherf et al.
# Submitted via: CDex 1.70beta2
#
DISCID=d80b0c10
DTITLE=Svein Sydengen - Egne sanger med riktig TEMPO
DYEAR=2007
DGENRE=Country
TTITLE0=Ennu
TTITLE1=Blue road
TTITLE2=En sliten musikers blues
TTITLE3=Hermanns Trombon
TTITLE4=Sol
TTITLE5=Then I lost it all
TTITLE6=Hurray for lonely people
TTITLE7=Askeladd
TTITLE8=Tid för att tycka om varann
TTITLE9=Min elskede øy
TTITLE10=Norges enger
TTITLE11=One of os may overcome
TTITLE12=I can feel it
TTITLE13=Dance on Broadway
TTITLE14=En vind skal engang komme
TTITLE15=Sommer kommer vise
EXTD=YEAR: 2007
EXTT0=
EXTT1=
EXTT2=
EXTT3=
EXTT4=
EXTT5=
EXTT6=
EXTT7=
EXTT8=
EXTT9=
EXTT10=
EXTT11=
EXTT12=
EXTT13=
EXTT14=
EXTT15=
PLAYORDER=
